<mxfile host="app.diagrams.net" modified="2021-04-06T19:03:03.999Z" agent="5.0 (Windows NT 10.0; Win64; x64) AppleWebKit/537.36 (KHTML, like Gecko) Chrome/89.0.4389.114 Safari/537.36 Edg/89.0.774.68" etag="KcyDrdhXB7YFxexRwbxu" version="14.4.8" type="github">
  <diagram id="HMv6YdhBwpiVs3DbU1db" name="Page-1">
    <mxGraphModel dx="876" dy="1524" grid="1" gridSize="10" guides="1" tooltips="1" connect="1" arrows="1" fold="1" page="1" pageScale="1" pageWidth="850" pageHeight="1100" math="0" shadow="0">
      <root>
        <mxCell id="0" />
        <mxCell id="1" parent="0" />
        <mxCell id="oW_0x0A9vv1hD7xiewm2-5" value="" style="edgeStyle=orthogonalEdgeStyle;rounded=0;orthogonalLoop=1;jettySize=auto;html=1;strokeWidth=3;" edge="1" parent="1" source="oW_0x0A9vv1hD7xiewm2-3" target="oW_0x0A9vv1hD7xiewm2-4">
          <mxGeometry relative="1" as="geometry" />
        </mxCell>
        <mxCell id="oW_0x0A9vv1hD7xiewm2-3" value="&lt;b&gt;&lt;font style=&quot;font-size: 16px&quot;&gt;Begin&lt;/font&gt;&lt;/b&gt;" style="ellipse;whiteSpace=wrap;html=1;fillColor=#f5f5f5;strokeColor=#666666;fontColor=#333333;strokeWidth=4;" vertex="1" parent="1">
          <mxGeometry x="80" y="20" width="100" height="50" as="geometry" />
        </mxCell>
        <mxCell id="oW_0x0A9vv1hD7xiewm2-7" value="" style="edgeStyle=orthogonalEdgeStyle;rounded=0;orthogonalLoop=1;jettySize=auto;html=1;strokeWidth=3;" edge="1" parent="1" source="oW_0x0A9vv1hD7xiewm2-4" target="oW_0x0A9vv1hD7xiewm2-6">
          <mxGeometry relative="1" as="geometry" />
        </mxCell>
        <mxCell id="oW_0x0A9vv1hD7xiewm2-4" value="&lt;blockquote style=&quot;margin: 0 0 0 40px ; border: none ; padding: 0px&quot;&gt;&lt;/blockquote&gt;&lt;blockquote style=&quot;margin: 0 0 0 40px ; border: none ; padding: 0px&quot;&gt;&lt;blockquote style=&quot;margin: 0 0 0 40px ; border: none ; padding: 0px&quot;&gt;&lt;blockquote style=&quot;margin: 0 0 0 40px ; border: none ; padding: 0px&quot;&gt;&lt;/blockquote&gt;&lt;/blockquote&gt;&lt;/blockquote&gt;&lt;span style=&quot;font-size: 14px&quot;&gt;&lt;div&gt;&lt;b&gt;Cấu hình tất cả &lt;br&gt;các Analog Input =&amp;gt; Digital I/O&amp;nbsp;&lt;/b&gt;&lt;/div&gt;&lt;/span&gt;&lt;blockquote style=&quot;margin: 0 0 0 40px ; border: none ; padding: 0px&quot;&gt;&lt;/blockquote&gt;&lt;blockquote style=&quot;margin: 0 0 0 40px ; border: none ; padding: 0px&quot;&gt;&lt;/blockquote&gt;&lt;blockquote style=&quot;margin: 0 0 0 40px ; border: none ; padding: 0px&quot;&gt;&lt;/blockquote&gt;" style="rounded=1;whiteSpace=wrap;html=1;strokeWidth=4;" vertex="1" parent="1">
          <mxGeometry x="50" y="100" width="160" height="80" as="geometry" />
        </mxCell>
        <mxCell id="oW_0x0A9vv1hD7xiewm2-10" value="" style="edgeStyle=orthogonalEdgeStyle;rounded=0;orthogonalLoop=1;jettySize=auto;html=1;strokeWidth=3;" edge="1" parent="1" target="oW_0x0A9vv1hD7xiewm2-8">
          <mxGeometry relative="1" as="geometry">
            <mxPoint x="130" y="300" as="sourcePoint" />
          </mxGeometry>
        </mxCell>
        <mxCell id="oW_0x0A9vv1hD7xiewm2-6" value="&lt;blockquote style=&quot;margin: 0 0 0 40px ; border: none ; padding: 0px&quot;&gt;&lt;/blockquote&gt;&lt;blockquote style=&quot;margin: 0 0 0 40px ; border: none ; padding: 0px&quot;&gt;&lt;blockquote style=&quot;margin: 0 0 0 40px ; border: none ; padding: 0px&quot;&gt;&lt;blockquote style=&quot;margin: 0 0 0 40px ; border: none ; padding: 0px&quot;&gt;&lt;/blockquote&gt;&lt;/blockquote&gt;&lt;/blockquote&gt;&lt;div&gt;&lt;div&gt;&lt;span style=&quot;font-size: 14px&quot;&gt;&lt;b&gt;Cấu hình PORT nối led&lt;/b&gt;&lt;/span&gt;&lt;/div&gt;&lt;/div&gt;&lt;div&gt;&lt;span style=&quot;font-size: 14px&quot;&gt;&lt;b&gt;(PORTD)(OUTPUT)&lt;/b&gt;&lt;/span&gt;&lt;/div&gt;&lt;blockquote style=&quot;margin: 0 0 0 40px ; border: none ; padding: 0px&quot;&gt;&lt;/blockquote&gt;&lt;blockquote style=&quot;margin: 0 0 0 40px ; border: none ; padding: 0px&quot;&gt;&lt;/blockquote&gt;&lt;blockquote style=&quot;margin: 0 0 0 40px ; border: none ; padding: 0px&quot;&gt;&lt;/blockquote&gt;" style="rounded=1;whiteSpace=wrap;html=1;strokeWidth=3;" vertex="1" parent="1">
          <mxGeometry x="50" y="210" width="160" height="80" as="geometry" />
        </mxCell>
        <mxCell id="oW_0x0A9vv1hD7xiewm2-11" value="" style="edgeStyle=orthogonalEdgeStyle;rounded=0;orthogonalLoop=1;jettySize=auto;html=1;strokeWidth=3;" edge="1" parent="1" source="oW_0x0A9vv1hD7xiewm2-8" target="oW_0x0A9vv1hD7xiewm2-9">
          <mxGeometry relative="1" as="geometry" />
        </mxCell>
        <mxCell id="oW_0x0A9vv1hD7xiewm2-8" value="&lt;blockquote style=&quot;margin: 0 0 0 40px ; border: none ; padding: 0px&quot;&gt;&lt;/blockquote&gt;&lt;blockquote style=&quot;margin: 0 0 0 40px ; border: none ; padding: 0px&quot;&gt;&lt;blockquote style=&quot;margin: 0 0 0 40px ; border: none ; padding: 0px&quot;&gt;&lt;blockquote style=&quot;margin: 0 0 0 40px ; border: none ; padding: 0px&quot;&gt;&lt;/blockquote&gt;&lt;/blockquote&gt;&lt;/blockquote&gt;&lt;div&gt;&lt;div&gt;&lt;span style=&quot;font-size: 14px&quot;&gt;&lt;b&gt;Cấu hình PORT nối SW&lt;/b&gt;&lt;/span&gt;&lt;/div&gt;&lt;/div&gt;&lt;div&gt;&lt;span style=&quot;font-size: 14px&quot;&gt;&lt;b&gt;(RB0, RB1)&lt;/b&gt;&lt;/span&gt;&lt;/div&gt;&lt;b style=&quot;font-size: 14px&quot;&gt;(INPUT)&lt;/b&gt;&lt;blockquote style=&quot;margin: 0 0 0 40px ; border: none ; padding: 0px&quot;&gt;&lt;/blockquote&gt;&lt;blockquote style=&quot;margin: 0 0 0 40px ; border: none ; padding: 0px&quot;&gt;&lt;/blockquote&gt;&lt;blockquote style=&quot;margin: 0 0 0 40px ; border: none ; padding: 0px&quot;&gt;&lt;/blockquote&gt;" style="rounded=1;whiteSpace=wrap;html=1;strokeWidth=3;" vertex="1" parent="1">
          <mxGeometry x="50" y="320" width="160" height="80" as="geometry" />
        </mxCell>
        <mxCell id="oW_0x0A9vv1hD7xiewm2-13" value="" style="edgeStyle=orthogonalEdgeStyle;rounded=0;orthogonalLoop=1;jettySize=auto;html=1;strokeWidth=3;" edge="1" parent="1" source="oW_0x0A9vv1hD7xiewm2-9" target="oW_0x0A9vv1hD7xiewm2-12">
          <mxGeometry relative="1" as="geometry" />
        </mxCell>
        <mxCell id="oW_0x0A9vv1hD7xiewm2-9" value="&lt;blockquote style=&quot;margin: 0 0 0 40px ; border: none ; padding: 0px&quot;&gt;&lt;/blockquote&gt;&lt;blockquote style=&quot;margin: 0 0 0 40px ; border: none ; padding: 0px&quot;&gt;&lt;blockquote style=&quot;margin: 0 0 0 40px ; border: none ; padding: 0px&quot;&gt;&lt;blockquote style=&quot;margin: 0 0 0 40px ; border: none ; padding: 0px&quot;&gt;&lt;/blockquote&gt;&lt;/blockquote&gt;&lt;/blockquote&gt;&lt;div&gt;&lt;span style=&quot;font-size: 14px&quot;&gt;&lt;b&gt;Kích hoạt tính năng Pull-up&lt;/b&gt;&lt;/span&gt;&lt;/div&gt;&lt;div&gt;&lt;span style=&quot;font-size: 14px&quot;&gt;&lt;b&gt;(RB0, RB1)&lt;/b&gt;&lt;/span&gt;&lt;/div&gt;&lt;b style=&quot;font-size: 14px&quot;&gt;(INPUT)&lt;/b&gt;&lt;blockquote style=&quot;margin: 0 0 0 40px ; border: none ; padding: 0px&quot;&gt;&lt;/blockquote&gt;&lt;blockquote style=&quot;margin: 0 0 0 40px ; border: none ; padding: 0px&quot;&gt;&lt;/blockquote&gt;&lt;blockquote style=&quot;margin: 0 0 0 40px ; border: none ; padding: 0px&quot;&gt;&lt;/blockquote&gt;" style="rounded=1;whiteSpace=wrap;html=1;strokeWidth=3;" vertex="1" parent="1">
          <mxGeometry x="50" y="430" width="160" height="80" as="geometry" />
        </mxCell>
        <mxCell id="oW_0x0A9vv1hD7xiewm2-17" value="" style="edgeStyle=orthogonalEdgeStyle;rounded=0;orthogonalLoop=1;jettySize=auto;html=1;strokeWidth=3;" edge="1" parent="1" source="oW_0x0A9vv1hD7xiewm2-12" target="oW_0x0A9vv1hD7xiewm2-16">
          <mxGeometry relative="1" as="geometry" />
        </mxCell>
        <mxCell id="oW_0x0A9vv1hD7xiewm2-12" value="&lt;blockquote style=&quot;margin: 0 0 0 40px ; border: none ; padding: 0px&quot;&gt;&lt;/blockquote&gt;&lt;blockquote style=&quot;margin: 0 0 0 40px ; border: none ; padding: 0px&quot;&gt;&lt;blockquote style=&quot;margin: 0 0 0 40px ; border: none ; padding: 0px&quot;&gt;&lt;blockquote style=&quot;margin: 0 0 0 40px ; border: none ; padding: 0px&quot;&gt;&lt;/blockquote&gt;&lt;/blockquote&gt;&lt;/blockquote&gt;&lt;div&gt;&lt;span style=&quot;font-size: 14px&quot;&gt;&lt;b&gt;Xoá cờ ngắt và cho phép ngắt PORTB, bật ngắt ngoài tại RB0, RB1&lt;/b&gt;&lt;/span&gt;&lt;/div&gt;&lt;blockquote style=&quot;margin: 0 0 0 40px ; border: none ; padding: 0px&quot;&gt;&lt;/blockquote&gt;&lt;blockquote style=&quot;margin: 0 0 0 40px ; border: none ; padding: 0px&quot;&gt;&lt;/blockquote&gt;&lt;blockquote style=&quot;margin: 0 0 0 40px ; border: none ; padding: 0px&quot;&gt;&lt;/blockquote&gt;" style="rounded=1;whiteSpace=wrap;html=1;strokeWidth=3;" vertex="1" parent="1">
          <mxGeometry x="50" y="540" width="160" height="80" as="geometry" />
        </mxCell>
        <mxCell id="oW_0x0A9vv1hD7xiewm2-15" value="&lt;b&gt;&lt;font style=&quot;font-size: 14px&quot;&gt;Start&lt;/font&gt;&lt;/b&gt;" style="text;html=1;strokeColor=none;fillColor=none;align=center;verticalAlign=middle;whiteSpace=wrap;rounded=0;strokeWidth=4;" vertex="1" parent="1">
          <mxGeometry x="90" y="60" width="30" height="50" as="geometry" />
        </mxCell>
        <mxCell id="oW_0x0A9vv1hD7xiewm2-18" style="edgeStyle=orthogonalEdgeStyle;rounded=1;orthogonalLoop=1;jettySize=auto;html=1;strokeWidth=3;" edge="1" parent="1" source="oW_0x0A9vv1hD7xiewm2-16">
          <mxGeometry relative="1" as="geometry">
            <mxPoint x="140" y="740" as="targetPoint" />
            <Array as="points">
              <mxPoint x="130" y="770" />
              <mxPoint x="170" y="770" />
              <mxPoint x="170" y="740" />
            </Array>
          </mxGeometry>
        </mxCell>
        <mxCell id="oW_0x0A9vv1hD7xiewm2-16" value="&lt;blockquote style=&quot;margin: 0 0 0 40px ; border: none ; padding: 0px&quot;&gt;&lt;/blockquote&gt;&lt;blockquote style=&quot;margin: 0 0 0 40px ; border: none ; padding: 0px&quot;&gt;&lt;blockquote style=&quot;margin: 0 0 0 40px ; border: none ; padding: 0px&quot;&gt;&lt;blockquote style=&quot;margin: 0 0 0 40px ; border: none ; padding: 0px&quot;&gt;&lt;/blockquote&gt;&lt;/blockquote&gt;&lt;/blockquote&gt;&lt;div&gt;&lt;span style=&quot;font-size: 14px&quot;&gt;&lt;b&gt;Cho phép module ngắt hoạt động&lt;/b&gt;&lt;/span&gt;&lt;/div&gt;&lt;blockquote style=&quot;margin: 0 0 0 40px ; border: none ; padding: 0px&quot;&gt;&lt;/blockquote&gt;&lt;blockquote style=&quot;margin: 0 0 0 40px ; border: none ; padding: 0px&quot;&gt;&lt;/blockquote&gt;&lt;blockquote style=&quot;margin: 0 0 0 40px ; border: none ; padding: 0px&quot;&gt;&lt;/blockquote&gt;" style="rounded=1;whiteSpace=wrap;html=1;strokeWidth=3;" vertex="1" parent="1">
          <mxGeometry x="50" y="650" width="160" height="80" as="geometry" />
        </mxCell>
        <mxCell id="oW_0x0A9vv1hD7xiewm2-24" value="&lt;b&gt;&lt;font style=&quot;font-size: 14px&quot;&gt;Loop&lt;/font&gt;&lt;/b&gt;" style="text;html=1;strokeColor=none;fillColor=none;align=center;verticalAlign=middle;whiteSpace=wrap;rounded=0;strokeWidth=4;" vertex="1" parent="1">
          <mxGeometry x="90" y="720" width="30" height="50" as="geometry" />
        </mxCell>
        <mxCell id="oW_0x0A9vv1hD7xiewm2-27" value="" style="edgeStyle=orthogonalEdgeStyle;rounded=1;orthogonalLoop=1;jettySize=auto;html=1;strokeWidth=3;" edge="1" parent="1" source="oW_0x0A9vv1hD7xiewm2-25">
          <mxGeometry relative="1" as="geometry">
            <mxPoint x="370" y="100" as="targetPoint" />
          </mxGeometry>
        </mxCell>
        <mxCell id="oW_0x0A9vv1hD7xiewm2-25" value="&lt;span style=&quot;font-size: 16px&quot;&gt;&lt;b&gt;__interrupt() myIsr()&lt;/b&gt;&lt;/span&gt;" style="ellipse;whiteSpace=wrap;html=1;fillColor=#f5f5f5;strokeColor=#666666;fontColor=#333333;strokeWidth=4;" vertex="1" parent="1">
          <mxGeometry x="275" y="20" width="190" height="50" as="geometry" />
        </mxCell>
        <mxCell id="oW_0x0A9vv1hD7xiewm2-32" value="" style="edgeStyle=orthogonalEdgeStyle;rounded=1;orthogonalLoop=1;jettySize=auto;html=1;strokeWidth=3;" edge="1" parent="1" source="oW_0x0A9vv1hD7xiewm2-28" target="oW_0x0A9vv1hD7xiewm2-31">
          <mxGeometry relative="1" as="geometry" />
        </mxCell>
        <mxCell id="oW_0x0A9vv1hD7xiewm2-33" value="S" style="edgeLabel;html=1;align=right;verticalAlign=middle;resizable=0;points=[];horizontal=1;fontSize=18;fontStyle=1;labelPosition=left;verticalLabelPosition=middle;" vertex="1" connectable="0" parent="oW_0x0A9vv1hD7xiewm2-32">
          <mxGeometry x="-0.9287" relative="1" as="geometry">
            <mxPoint x="-10" y="-3" as="offset" />
          </mxGeometry>
        </mxCell>
        <mxCell id="oW_0x0A9vv1hD7xiewm2-51" value="S" style="edgeLabel;html=1;align=right;verticalAlign=middle;resizable=0;points=[];horizontal=1;fontSize=18;fontStyle=1;labelPosition=left;verticalLabelPosition=middle;" vertex="1" connectable="0" parent="oW_0x0A9vv1hD7xiewm2-32">
          <mxGeometry x="-0.9287" relative="1" as="geometry">
            <mxPoint x="560" y="-13" as="offset" />
          </mxGeometry>
        </mxCell>
        <mxCell id="oW_0x0A9vv1hD7xiewm2-64" value="S" style="edgeLabel;html=1;align=right;verticalAlign=middle;resizable=0;points=[];horizontal=1;fontSize=18;fontStyle=1;labelPosition=left;verticalLabelPosition=middle;" vertex="1" connectable="0" parent="oW_0x0A9vv1hD7xiewm2-32">
          <mxGeometry x="-0.9287" relative="1" as="geometry">
            <mxPoint x="560" y="277" as="offset" />
          </mxGeometry>
        </mxCell>
        <mxCell id="oW_0x0A9vv1hD7xiewm2-68" value="S" style="edgeLabel;html=1;align=right;verticalAlign=middle;resizable=0;points=[];horizontal=1;fontSize=18;fontStyle=1;labelPosition=left;verticalLabelPosition=middle;" vertex="1" connectable="0" parent="oW_0x0A9vv1hD7xiewm2-32">
          <mxGeometry x="-0.9287" relative="1" as="geometry">
            <mxPoint x="210" y="-3" as="offset" />
          </mxGeometry>
        </mxCell>
        <mxCell id="oW_0x0A9vv1hD7xiewm2-69" value="S" style="edgeLabel;html=1;align=right;verticalAlign=middle;resizable=0;points=[];horizontal=1;fontSize=18;fontStyle=1;labelPosition=left;verticalLabelPosition=middle;" vertex="1" connectable="0" parent="oW_0x0A9vv1hD7xiewm2-32">
          <mxGeometry x="-0.9287" relative="1" as="geometry">
            <mxPoint x="210" y="277" as="offset" />
          </mxGeometry>
        </mxCell>
        <mxCell id="oW_0x0A9vv1hD7xiewm2-35" value="" style="edgeStyle=orthogonalEdgeStyle;rounded=1;orthogonalLoop=1;jettySize=auto;html=1;strokeWidth=3;fontSize=18;" edge="1" parent="1" source="oW_0x0A9vv1hD7xiewm2-28" target="oW_0x0A9vv1hD7xiewm2-34">
          <mxGeometry relative="1" as="geometry">
            <Array as="points">
              <mxPoint x="490" y="140" />
              <mxPoint x="490" y="140" />
            </Array>
          </mxGeometry>
        </mxCell>
        <mxCell id="oW_0x0A9vv1hD7xiewm2-36" value="Đ" style="edgeLabel;html=1;align=center;verticalAlign=bottom;resizable=0;points=[];fontSize=18;fontStyle=1;horizontal=1;" vertex="1" connectable="0" parent="oW_0x0A9vv1hD7xiewm2-35">
          <mxGeometry x="-0.4074" relative="1" as="geometry">
            <mxPoint as="offset" />
          </mxGeometry>
        </mxCell>
        <mxCell id="oW_0x0A9vv1hD7xiewm2-52" value="Đ" style="edgeLabel;html=1;align=center;verticalAlign=bottom;resizable=0;points=[];fontSize=18;fontStyle=1;horizontal=1;" vertex="1" connectable="0" parent="oW_0x0A9vv1hD7xiewm2-35">
          <mxGeometry x="-0.4074" relative="1" as="geometry">
            <mxPoint x="572" as="offset" />
          </mxGeometry>
        </mxCell>
        <mxCell id="oW_0x0A9vv1hD7xiewm2-63" value="Đ" style="edgeLabel;html=1;align=center;verticalAlign=bottom;resizable=0;points=[];fontSize=18;fontStyle=1;horizontal=1;" vertex="1" connectable="0" parent="oW_0x0A9vv1hD7xiewm2-35">
          <mxGeometry x="-0.4074" relative="1" as="geometry">
            <mxPoint x="572" y="280" as="offset" />
          </mxGeometry>
        </mxCell>
        <mxCell id="oW_0x0A9vv1hD7xiewm2-67" value="Đ" style="edgeLabel;html=1;align=center;verticalAlign=bottom;resizable=0;points=[];fontSize=18;fontStyle=1;horizontal=1;" vertex="1" connectable="0" parent="oW_0x0A9vv1hD7xiewm2-35">
          <mxGeometry x="-0.4074" relative="1" as="geometry">
            <mxPoint x="212" as="offset" />
          </mxGeometry>
        </mxCell>
        <mxCell id="oW_0x0A9vv1hD7xiewm2-70" value="Đ" style="edgeLabel;html=1;align=center;verticalAlign=bottom;resizable=0;points=[];fontSize=18;fontStyle=1;horizontal=1;" vertex="1" connectable="0" parent="oW_0x0A9vv1hD7xiewm2-35">
          <mxGeometry x="-0.4074" relative="1" as="geometry">
            <mxPoint x="212" y="280" as="offset" />
          </mxGeometry>
        </mxCell>
        <mxCell id="oW_0x0A9vv1hD7xiewm2-28" value="&lt;b&gt;&lt;font style=&quot;font-size: 14px&quot;&gt;Kiểm tra cờ&lt;br&gt;RBIF == 1&lt;/font&gt;&lt;/b&gt;" style="rhombus;whiteSpace=wrap;html=1;rounded=1;strokeWidth=4;" vertex="1" parent="1">
          <mxGeometry x="285" y="105" width="170" height="70" as="geometry" />
        </mxCell>
        <mxCell id="oW_0x0A9vv1hD7xiewm2-31" value="&lt;font style=&quot;font-size: 14px&quot;&gt;&lt;b&gt;END&lt;/b&gt;&lt;/font&gt;" style="whiteSpace=wrap;html=1;rounded=1;strokeWidth=4;" vertex="1" parent="1">
          <mxGeometry x="310" y="680" width="120" height="60" as="geometry" />
        </mxCell>
        <mxCell id="oW_0x0A9vv1hD7xiewm2-40" value="" style="edgeStyle=orthogonalEdgeStyle;rounded=1;orthogonalLoop=1;jettySize=auto;html=1;strokeWidth=3;fontSize=18;" edge="1" parent="1" source="oW_0x0A9vv1hD7xiewm2-34" target="oW_0x0A9vv1hD7xiewm2-39">
          <mxGeometry relative="1" as="geometry" />
        </mxCell>
        <mxCell id="oW_0x0A9vv1hD7xiewm2-65" style="edgeStyle=orthogonalEdgeStyle;rounded=1;orthogonalLoop=1;jettySize=auto;html=1;entryX=0.5;entryY=0;entryDx=0;entryDy=0;endArrow=block;endFill=1;strokeWidth=3;fontSize=18;" edge="1" parent="1" source="oW_0x0A9vv1hD7xiewm2-34" target="oW_0x0A9vv1hD7xiewm2-38">
          <mxGeometry relative="1" as="geometry" />
        </mxCell>
        <mxCell id="oW_0x0A9vv1hD7xiewm2-34" value="&lt;b&gt;&lt;font style=&quot;font-size: 14px&quot;&gt;Kiểm tra&amp;nbsp;&lt;br&gt;RB0 == 0&lt;br&gt;&lt;/font&gt;&lt;/b&gt;" style="rhombus;whiteSpace=wrap;html=1;rounded=1;strokeWidth=4;" vertex="1" parent="1">
          <mxGeometry x="500" y="105" width="170" height="70" as="geometry" />
        </mxCell>
        <mxCell id="oW_0x0A9vv1hD7xiewm2-60" value="" style="edgeStyle=orthogonalEdgeStyle;rounded=1;orthogonalLoop=1;jettySize=auto;html=1;endArrow=block;endFill=1;strokeWidth=3;fontSize=18;" edge="1" parent="1" source="oW_0x0A9vv1hD7xiewm2-38" target="oW_0x0A9vv1hD7xiewm2-54">
          <mxGeometry relative="1" as="geometry" />
        </mxCell>
        <mxCell id="oW_0x0A9vv1hD7xiewm2-66" style="edgeStyle=orthogonalEdgeStyle;rounded=1;orthogonalLoop=1;jettySize=auto;html=1;endArrow=block;endFill=1;strokeWidth=3;fontSize=18;" edge="1" parent="1" source="oW_0x0A9vv1hD7xiewm2-38">
          <mxGeometry relative="1" as="geometry">
            <mxPoint x="370" y="620" as="targetPoint" />
            <Array as="points">
              <mxPoint x="585" y="620" />
            </Array>
          </mxGeometry>
        </mxCell>
        <mxCell id="oW_0x0A9vv1hD7xiewm2-38" value="&lt;b&gt;&lt;font style=&quot;font-size: 14px&quot;&gt;Kiểm tra&amp;nbsp;&lt;br&gt;RB1 == 0&lt;br&gt;&lt;/font&gt;&lt;/b&gt;" style="rhombus;whiteSpace=wrap;html=1;rounded=1;strokeWidth=4;" vertex="1" parent="1">
          <mxGeometry x="500" y="390" width="170" height="70" as="geometry" />
        </mxCell>
        <mxCell id="oW_0x0A9vv1hD7xiewm2-44" value="" style="edgeStyle=orthogonalEdgeStyle;rounded=1;orthogonalLoop=1;jettySize=auto;html=1;strokeWidth=3;fontSize=18;" edge="1" parent="1" source="oW_0x0A9vv1hD7xiewm2-39" target="oW_0x0A9vv1hD7xiewm2-43">
          <mxGeometry relative="1" as="geometry" />
        </mxCell>
        <mxCell id="oW_0x0A9vv1hD7xiewm2-39" value="&lt;b&gt;&lt;font style=&quot;font-size: 14px&quot;&gt;Chống dội&lt;/font&gt;&lt;/b&gt;" style="whiteSpace=wrap;html=1;rounded=1;strokeWidth=4;" vertex="1" parent="1">
          <mxGeometry x="710" y="110" width="120" height="60" as="geometry" />
        </mxCell>
        <mxCell id="oW_0x0A9vv1hD7xiewm2-47" value="" style="edgeStyle=orthogonalEdgeStyle;rounded=1;orthogonalLoop=1;jettySize=auto;html=1;strokeWidth=3;fontSize=18;" edge="1" parent="1" source="oW_0x0A9vv1hD7xiewm2-43" target="oW_0x0A9vv1hD7xiewm2-46">
          <mxGeometry relative="1" as="geometry" />
        </mxCell>
        <mxCell id="oW_0x0A9vv1hD7xiewm2-53" style="edgeStyle=orthogonalEdgeStyle;rounded=1;orthogonalLoop=1;jettySize=auto;html=1;endArrow=block;endFill=1;strokeWidth=3;fontSize=18;entryX=0.5;entryY=0;entryDx=0;entryDy=0;" edge="1" parent="1" source="oW_0x0A9vv1hD7xiewm2-43" target="oW_0x0A9vv1hD7xiewm2-43">
          <mxGeometry relative="1" as="geometry">
            <mxPoint x="945" y="60" as="targetPoint" />
            <Array as="points">
              <mxPoint x="1060" y="140" />
              <mxPoint x="1060" y="70" />
              <mxPoint x="945" y="70" />
            </Array>
          </mxGeometry>
        </mxCell>
        <mxCell id="oW_0x0A9vv1hD7xiewm2-43" value="&lt;b&gt;&lt;font style=&quot;font-size: 14px&quot;&gt;Kiểm tra&amp;nbsp;&lt;br&gt;RB0 == 0&lt;/font&gt;&lt;/b&gt;&lt;b&gt;&lt;font style=&quot;font-size: 14px&quot;&gt;&lt;br&gt;&lt;/font&gt;&lt;/b&gt;" style="rhombus;whiteSpace=wrap;html=1;rounded=1;strokeWidth=4;" vertex="1" parent="1">
          <mxGeometry x="860" y="105" width="170" height="70" as="geometry" />
        </mxCell>
        <mxCell id="oW_0x0A9vv1hD7xiewm2-71" style="edgeStyle=orthogonalEdgeStyle;rounded=1;orthogonalLoop=1;jettySize=auto;html=1;endArrow=block;endFill=1;strokeWidth=3;fontSize=18;entryX=1;entryY=0.5;entryDx=0;entryDy=0;" edge="1" parent="1" source="oW_0x0A9vv1hD7xiewm2-46" target="oW_0x0A9vv1hD7xiewm2-73">
          <mxGeometry relative="1" as="geometry">
            <mxPoint x="890" y="620" as="targetPoint" />
            <Array as="points">
              <mxPoint x="1140" y="230" />
              <mxPoint x="1140" y="620" />
            </Array>
          </mxGeometry>
        </mxCell>
        <mxCell id="oW_0x0A9vv1hD7xiewm2-46" value="&lt;b style=&quot;font-size: 14px&quot;&gt;Tắt LED&lt;br&gt;(RC2 = 0)&lt;/b&gt;" style="whiteSpace=wrap;html=1;rounded=1;strokeWidth=4;" vertex="1" parent="1">
          <mxGeometry x="885" y="200" width="120" height="60" as="geometry" />
        </mxCell>
        <mxCell id="oW_0x0A9vv1hD7xiewm2-59" value="" style="edgeStyle=orthogonalEdgeStyle;rounded=1;orthogonalLoop=1;jettySize=auto;html=1;endArrow=block;endFill=1;strokeWidth=3;fontSize=18;" edge="1" parent="1" source="oW_0x0A9vv1hD7xiewm2-54" target="oW_0x0A9vv1hD7xiewm2-55">
          <mxGeometry relative="1" as="geometry" />
        </mxCell>
        <mxCell id="oW_0x0A9vv1hD7xiewm2-54" value="&lt;b&gt;&lt;font style=&quot;font-size: 14px&quot;&gt;Chống dội&lt;/font&gt;&lt;/b&gt;" style="whiteSpace=wrap;html=1;rounded=1;strokeWidth=4;" vertex="1" parent="1">
          <mxGeometry x="710" y="395" width="120" height="60" as="geometry" />
        </mxCell>
        <mxCell id="oW_0x0A9vv1hD7xiewm2-58" value="" style="edgeStyle=orthogonalEdgeStyle;rounded=1;orthogonalLoop=1;jettySize=auto;html=1;endArrow=block;endFill=1;strokeWidth=3;fontSize=18;" edge="1" parent="1" source="oW_0x0A9vv1hD7xiewm2-55" target="oW_0x0A9vv1hD7xiewm2-56">
          <mxGeometry relative="1" as="geometry" />
        </mxCell>
        <mxCell id="oW_0x0A9vv1hD7xiewm2-61" style="edgeStyle=orthogonalEdgeStyle;rounded=1;orthogonalLoop=1;jettySize=auto;html=1;endArrow=block;endFill=1;strokeWidth=3;fontSize=18;entryX=0.5;entryY=0;entryDx=0;entryDy=0;" edge="1" parent="1" source="oW_0x0A9vv1hD7xiewm2-55" target="oW_0x0A9vv1hD7xiewm2-55">
          <mxGeometry relative="1" as="geometry">
            <mxPoint x="945" y="380" as="targetPoint" />
            <Array as="points">
              <mxPoint x="1060" y="425" />
              <mxPoint x="1060" y="350" />
              <mxPoint x="945" y="350" />
            </Array>
          </mxGeometry>
        </mxCell>
        <mxCell id="oW_0x0A9vv1hD7xiewm2-55" value="&lt;b&gt;&lt;font style=&quot;font-size: 14px&quot;&gt;Kiểm tra&amp;nbsp;&lt;br&gt;RB0 == 0&lt;/font&gt;&lt;/b&gt;&lt;b&gt;&lt;font style=&quot;font-size: 14px&quot;&gt;&lt;br&gt;&lt;/font&gt;&lt;/b&gt;" style="rhombus;whiteSpace=wrap;html=1;rounded=1;strokeWidth=4;" vertex="1" parent="1">
          <mxGeometry x="860" y="390" width="170" height="70" as="geometry" />
        </mxCell>
        <mxCell id="oW_0x0A9vv1hD7xiewm2-72" style="edgeStyle=orthogonalEdgeStyle;rounded=1;orthogonalLoop=1;jettySize=auto;html=1;endArrow=oval;endFill=1;strokeWidth=3;fontSize=18;" edge="1" parent="1" source="oW_0x0A9vv1hD7xiewm2-56">
          <mxGeometry relative="1" as="geometry">
            <mxPoint x="1140" y="520" as="targetPoint" />
          </mxGeometry>
        </mxCell>
        <mxCell id="oW_0x0A9vv1hD7xiewm2-56" value="&lt;b style=&quot;font-size: 14px&quot;&gt;Sáng LED&lt;br&gt;(RC2 = 1)&lt;/b&gt;" style="whiteSpace=wrap;html=1;rounded=1;strokeWidth=4;" vertex="1" parent="1">
          <mxGeometry x="885" y="490" width="120" height="60" as="geometry" />
        </mxCell>
        <mxCell id="oW_0x0A9vv1hD7xiewm2-74" style="edgeStyle=orthogonalEdgeStyle;rounded=1;orthogonalLoop=1;jettySize=auto;html=1;endArrow=oval;endFill=1;strokeWidth=3;fontSize=18;" edge="1" parent="1" source="oW_0x0A9vv1hD7xiewm2-73">
          <mxGeometry relative="1" as="geometry">
            <mxPoint x="580" y="620" as="targetPoint" />
          </mxGeometry>
        </mxCell>
        <mxCell id="oW_0x0A9vv1hD7xiewm2-73" value="&lt;b&gt;&lt;font style=&quot;font-size: 14px&quot;&gt;Xoá cờ&lt;br&gt;&lt;/font&gt;&lt;/b&gt;&lt;b&gt;&lt;font style=&quot;font-size: 14px&quot;&gt;RBIF = 0&lt;/font&gt;&lt;/b&gt;&lt;b&gt;&lt;font style=&quot;font-size: 14px&quot;&gt;&lt;br&gt;&lt;/font&gt;&lt;/b&gt;" style="whiteSpace=wrap;html=1;rounded=1;strokeWidth=4;" vertex="1" parent="1">
          <mxGeometry x="760" y="590" width="120" height="60" as="geometry" />
        </mxCell>
      </root>
    </mxGraphModel>
  </diagram>
</mxfile>
